<?xml version="1.0" encoding="UTF-8" standalone="no"?>
<!-- Created with Inkscape (http://www.inkscape.org/) -->

<svg
   xmlns:dc="http://purl.org/dc/elements/1.1/"
   xmlns:cc="http://creativecommons.org/ns#"
   xmlns:rdf="http://www.w3.org/1999/02/22-rdf-syntax-ns#"
   xmlns:svg="http://www.w3.org/2000/svg"
   xmlns="http://www.w3.org/2000/svg"
   xmlns:sodipodi="http://sodipodi.sourceforge.net/DTD/sodipodi-0.dtd"
   xmlns:inkscape="http://www.inkscape.org/namespaces/inkscape"
   width="250"
   height="250"
   viewBox="0 0 66.145835 66.145835"
   version="1.1"
   id="svg8"
   inkscape:version="0.92.4 (5da689c313, 2019-01-14)"
   sodipodi:docname="logo.svg">
  <defs
     id="defs2" />
  <sodipodi:namedview
     id="base"
     pagecolor="#ffffff"
     bordercolor="#666666"
     borderopacity="1.0"
     inkscape:pageopacity="0.0"
     inkscape:pageshadow="2"
     inkscape:zoom="1.3066667"
     inkscape:cx="450"
     inkscape:cy="175"
     inkscape:document-units="px"
     inkscape:current-layer="layer1-9"
     showgrid="false"
     units="px"
     inkscape:showpageshadow="false"
     inkscape:window-width="1366"
     inkscape:window-height="706"
     inkscape:window-x="-8"
     inkscape:window-y="-8"
     inkscape:window-maximized="1" />
  <metadata
     id="metadata5">
    <rdf:RDF>
      <cc:Work
         rdf:about="">
        <dc:format>image/svg+xml</dc:format>
        <dc:type
           rdf:resource="http://purl.org/dc/dcmitype/StillImage" />
        <dc:title></dc:title>
      </cc:Work>
    </rdf:RDF>
  </metadata>
  <g
     inkscape:label="Camada 1"
     inkscape:groupmode="layer"
     id="layer1"
     transform="translate(0,-230.85415)">
    <g
       transform="matrix(0.99999892,0,0,0.99999892,13.267278,28.385328)"
       id="layer1-4"
       inkscape:label="Camada 1">
      <g
         transform="translate(2.5682722,41.174269)"
         inkscape:label="Camada 1"
         id="layer1-9">
        <text
           xml:space="preserve"
           style="font-style:normal;font-variant:normal;font-weight:normal;font-stretch:normal;font-size:10.58333302px;line-height:1.25;font-family:'MS UI Gothic';-inkscape-font-specification:'MS UI Gothic';letter-spacing:0px;word-spacing:0px;fill:#000000;fill-opacity:1;stroke:none;stroke-width:0.26458332"
           x="24.190477"
           y="160.92856"
           id="text3880"><tspan
             sodipodi:role="line"
             id="tspan3878"
             x="24.190477"
             y="171.34653"
             style="font-style:normal;font-variant:normal;font-weight:normal;font-stretch:normal;font-family:'MS UI Gothic';-inkscape-font-specification:'MS UI Gothic';stroke-width:0.26458332" /></text>
        <g
           id="g3876"
           transform="matrix(0.11737852,0,0,0.1336069,-13.069802,160.66844)">
          <circle
             id="circle3713"
             r="245"
             cy="256"
             cx="256"
             style="fill:#f24976" />
          <rect
             id="rect3715"
             height="44.43"
             width="89.529999"
             style="fill:#445ea0"
             y="383.73001"
             x="211.24001" />
          <rect
             id="rect3717"
             height="44.43"
             width="19.841999"
             style="fill:#2e4c89"
             y="383.73001"
             x="211.24001" />
          <path
             id="path3719"
             d="m 345.098,453.795 c 0,2.435 -1.993,4.43 -4.429,4.43 H 171.331 c -2.436,0 -4.43,-1.995 -4.43,-4.43 v -22.203 c 0,-2.435 1.994,-4.43 4.43,-4.43 h 169.337 c 2.436,0 4.429,1.995 4.429,4.43 v 22.203 z"
             style="fill:#293d7c"
             inkscape:connector-curvature="0" />
          <path
             id="path3721"
             d="m 186.744,453.795 v -22.203 c 0,-2.435 1.994,-4.43 4.43,-4.43 h -19.842 c -2.436,0 -4.43,1.995 -4.43,4.43 v 22.203 c 0,2.435 1.994,4.43 4.43,4.43 h 19.842 c -2.437,0 -4.43,-1.996 -4.43,-4.43 z"
             style="fill:#1a2b63"
             inkscape:connector-curvature="0" />
          <path
             id="path3723"
             d="M 506.198,42.867 H 5.803 C 2.611,42.867 0,45.479 0,48.672 v 330.254 c 0,3.191 2.611,5.803 5.803,5.803 h 344.465 v -17.345 c 0,-1.767 1.436,-3.203 3.203,-3.203 h 13.486 c 2.754,0 5.62,-2.039 6.525,-4.641 l 2.547,-6.119 c 1.198,-2.417 0.621,-5.879 -1.34,-7.821 l -9.518,-9.443 c -0.602,-0.599 -0.934,-1.398 -0.934,-2.251 0,-0.853 0.332,-1.652 0.935,-2.251 l 17.261,-17.126 c 0.605,-0.601 1.414,-0.932 2.279,-0.932 0.864,0 1.674,0.331 2.279,0.932 l 9.517,9.443 c 1.219,1.21 3.102,1.934 5.035,1.934 1.04,0 2.032,-0.216 2.869,-0.623 l 6.201,-2.541 c 2.554,-0.871 4.598,-3.73 4.598,-6.487 v -13.319 c 0,-1.767 1.436,-3.203 3.202,-3.203 h 24.439 c 1.766,0 3.202,1.437 3.202,3.203 v 13.319 c 0,2.758 2.044,5.616 4.653,6.509 l 6.207,2.546 c 0.777,0.381 1.77,0.596 2.809,0.596 1.934,0 3.816,-0.723 5.036,-1.933 l 9.518,-9.443 c 0.605,-0.601 1.414,-0.932 2.278,-0.932 0.864,0 1.673,0.331 2.278,0.932 l 17.258,17.127 c 0.603,0.599 0.935,1.398 0.935,2.251 0,0.852 -0.333,1.652 -0.935,2.25 l -9.515,9.444 c -1.961,1.941 -2.538,5.403 -1.314,7.88 l 2.542,6.114 c 0.882,2.547 3.747,4.586 6.503,4.586 h 13.487 c 1.767,0 3.203,1.436 3.203,3.203 v 14.788 c 0.631,-0.928 1,-2.046 1,-3.246 V 48.672 c 0.003,-3.193 -2.608,-5.805 -5.799,-5.805 z"
             style="fill:#293d7c"
             inkscape:connector-curvature="0" />
          <path
             id="path3725"
             d="m 25.473,326.701 c 0,1.916 1.567,3.482 3.482,3.482 h 337.701 l 15.778,-15.655 c 0.605,-0.601 1.414,-0.932 2.279,-0.932 0.864,0 1.674,0.331 2.279,0.932 l 9.517,9.443 c 1.219,1.21 3.102,1.934 5.035,1.934 1.04,0 2.032,-0.216 2.869,-0.623 l 6.201,-2.541 c 2.554,-0.871 4.598,-3.73 4.598,-6.487 v -13.319 c 0,-1.767 1.436,-3.203 3.202,-3.203 h 24.439 c 1.766,0 3.202,1.437 3.202,3.203 v 13.319 c 0,2.758 2.044,5.616 4.653,6.509 l 6.207,2.546 c 0.777,0.381 1.77,0.596 2.809,0.596 1.934,0 3.816,-0.723 5.036,-1.933 l 9.518,-9.443 c 0.605,-0.601 1.414,-0.932 2.278,-0.932 0.864,0 1.673,0.331 2.278,0.932 l 7.692,7.634 V 99.913 H 25.473 Z"
             style="fill:#ffffff"
             inkscape:connector-curvature="0" />
          <path
             id="path3727"
             d="M 45.315,326.701 V 99.913 H 25.473 v 226.788 c 0,1.916 1.567,3.482 3.482,3.482 h 19.842 c -1.915,0.001 -3.482,-1.566 -3.482,-3.482 z"
             style="fill:#d9eafc"
             inkscape:connector-curvature="0" />
          <g
             id="g3733"
             style="fill:#000080">
            <path
               id="path3729"
               d="m 249.615,253.532 c -9.128,-9.128 -22.482,-11.506 -33.822,-7.15 l -38.259,-38.259 -7.691,7.691 c -0.213,0.213 -0.319,0.511 -0.288,0.811 0.233,2.255 -0.384,4.48 -1.738,6.265 -0.252,0.332 -0.272,0.785 -0.05,1.138 2.131,3.384 1.903,7.5 -0.515,10.134 l 30.38,30.38 c -4.357,11.339 -1.979,24.695 7.15,33.824 7.902,7.902 19.084,11.038 29.911,8.389 0.29,-0.071 0.55,-0.221 0.753,-0.425 0.191,-0.191 0.336,-0.432 0.41,-0.702 0.157,-0.559 0,-1.158 -0.41,-1.567 l -19.516,-19.518 19.861,-19.862 19.517,19.519 c 0.41,0.408 1.009,0.567 1.567,0.41 0.271,-0.076 0.512,-0.219 0.703,-0.41 0.204,-0.205 0.353,-0.464 0.424,-0.756 2.652,-10.828 -0.484,-22.009 -8.387,-29.912 z"
               style="fill:#000080"
               inkscape:connector-curvature="0" />
            <path
               id="path3731"
               d="m 148.928,208.658 c 1.713,0 3.415,0.502 4.924,1.452 0.163,0.103 0.348,0.153 0.533,0.153 0.213,0 0.426,-0.068 0.605,-0.203 1.538,-1.168 3.384,-1.784 5.338,-1.784 0.309,0 0.619,0.016 0.927,0.048 0.034,0.003 0.069,0.005 0.103,0.005 0.264,0 0.519,-0.105 0.707,-0.293 l 7.692,-7.692 -38.259,-38.258 c 4.356,-11.34 1.978,-24.695 -7.15,-33.822 -7.903,-7.903 -19.084,-11.04 -29.911,-8.39 -0.291,0.072 -0.549,0.221 -0.753,0.424 -0.192,0.191 -0.336,0.432 -0.412,0.704 -0.156,0.559 10e-4,1.157 0.412,1.567 L 113.2,142.085 93.338,161.948 73.821,142.43 c -0.409,-0.41 -1.009,-0.566 -1.567,-0.41 -0.27,0.074 -0.511,0.218 -0.702,0.41 -0.205,0.204 -0.354,0.463 -0.425,0.754 -2.65,10.826 0.487,22.009 8.388,29.91 9.129,9.129 22.483,11.507 33.824,7.151 l 30.381,30.381 c 1.38,-1.267 3.214,-1.968 5.208,-1.968 z"
               style="fill:#000080"
               inkscape:connector-curvature="0" />
          </g>
          <circle
             id="circle3735"
             r="15.667"
             cy="357.35001"
             cx="256"
             style="fill:#445ea0" />
          <path
             id="path3737"
             d="M 483.047,72.461 H 28.955 c -1.915,0 -3.482,1.566 -3.482,3.482 v 24.97 h 461.054 v -24.97 c 0,-1.916 -1.566,-3.482 -3.48,-3.482 z"
             style="fill:#5dc1d8"
             inkscape:connector-curvature="0" />
          <path
             id="path3739"
             d="M 48.797,72.461 H 28.955 c -1.915,0 -3.482,1.566 -3.482,3.482 v 24.97 h 19.842 v -24.97 c 0,-1.916 1.567,-3.482 3.482,-3.482 z"
             style="fill:#28a5a5"
             inkscape:connector-curvature="0" />
          <path
             id="path3741"
             d="m 414.212,456.022 c 0,2.311 1.891,4.202 4.202,4.202 h 24.439 c 2.311,0 4.202,-1.892 4.202,-4.202 v -13.318 c 0,-2.311 1.789,-4.815 3.977,-5.564 l 6.264,-2.566 c 2.079,-1.013 5.121,-0.508 6.761,1.121 l 9.518,9.445 c 1.64,1.626 4.324,1.626 5.965,0 l 17.258,-17.129 c 1.642,-1.629 1.642,-4.293 0,-5.921 l -9.515,-9.444 c -1.643,-1.628 -2.146,-4.656 -1.121,-6.729 l 2.568,-6.174 c 0.758,-2.183 3.27,-3.97 5.58,-3.97 h 13.487 c 2.313,0 4.203,-1.89 4.203,-4.201 v -24.189 c 0,-2.311 -1.891,-4.203 -4.203,-4.203 H 494.31 c -2.311,0 -4.822,-1.786 -5.58,-3.97 l -2.568,-6.174 c -1.024,-2.072 -0.522,-5.1 1.121,-6.727 l 9.515,-9.444 c 1.642,-1.628 1.642,-4.292 0,-5.921 L 479.54,313.817 c -1.641,-1.629 -4.325,-1.629 -5.965,0 l -9.518,9.443 c -1.641,1.627 -4.684,2.133 -6.762,1.121 l -6.263,-2.566 c -2.188,-0.748 -3.977,-3.252 -3.977,-5.563 v -13.319 c 0,-2.312 -1.892,-4.203 -4.202,-4.203 h -24.439 c -2.312,0 -4.202,1.892 -4.202,4.203 v 13.319 c 0,2.311 -1.789,4.814 -3.977,5.563 l -6.261,2.566 c -2.076,1.012 -5.121,0.508 -6.762,-1.121 l -9.517,-9.443 c -1.642,-1.629 -4.326,-1.629 -5.967,0 l -17.262,17.127 c -1.64,1.629 -1.64,4.291 0,5.921 l 9.518,9.444 c 1.642,1.627 2.145,4.654 1.121,6.727 l -2.568,6.174 c -0.76,2.184 -3.27,3.97 -5.581,3.97 H 353.47 c -2.313,0 -4.203,1.892 -4.203,4.203 v 24.189 c 0,2.312 1.891,4.201 4.203,4.201 h 13.486 c 2.312,0 4.821,1.787 5.581,3.97 l 2.569,6.176 c 1.024,2.07 0.522,5.099 -1.119,6.727 l -9.521,9.444 c -1.64,1.628 -1.64,4.292 0,5.921 l 17.262,17.129 c 1.641,1.626 4.325,1.626 5.967,-0.002 l 9.515,-9.443 c 1.641,-1.629 4.684,-2.134 6.762,-1.122 l 6.263,2.567 c 2.188,0.748 3.977,3.252 3.977,5.564 z"
             style="fill:#ff9518"
             inkscape:connector-curvature="0" />
          <path
             id="path3743"
             d="m 430.634,418.341 c -21.628,0 -39.16,-17.397 -39.16,-38.861 0.001,-21.466 17.532,-38.862 39.16,-38.862 21.628,0 39.16,17.397 39.16,38.86 0,21.465 -17.532,38.863 -39.16,38.863 z"
             style="fill:#ffaf10"
             inkscape:connector-curvature="0" />
          <path
             id="path3745"
             d="m 403.388,379.479 c 0,-19.456 14.401,-35.569 33.202,-38.417 -1.941,-0.294 -3.931,-0.445 -5.956,-0.445 -21.628,0 -39.159,17.397 -39.16,38.862 0,21.464 17.532,38.861 39.16,38.861 2.025,0 4.015,-0.152 5.956,-0.446 -18.801,-2.848 -33.202,-18.961 -33.202,-38.415 z"
             style="fill:#ff9518"
             inkscape:connector-curvature="0" />
          <path
             id="path3747"
             d="m 430.634,424.646 c -25.069,0 -45.464,-20.263 -45.464,-45.166 10e-4,-24.905 20.397,-45.167 45.464,-45.167 25.069,0 45.465,20.262 45.465,45.165 0,24.905 -20.396,45.168 -45.465,45.168 z m 0,-77.726 c -18.115,0 -32.854,14.605 -32.855,32.56 0,17.952 14.739,32.56 32.855,32.56 18.117,0 32.855,-14.607 32.857,-32.562 0,-17.953 -14.74,-32.558 -32.857,-32.558 z"
             style="fill:#db722c"
             inkscape:connector-curvature="0" />
          <path
             id="path3749"
             d="m 430.634,395.908 c -9.143,0 -16.554,-7.357 -16.554,-16.429 0,-9.076 7.411,-16.431 16.554,-16.431 9.146,0 16.554,7.354 16.554,16.429 0,9.074 -7.409,16.431 -16.554,16.431 z"
             style="fill:#ffaf10"
             inkscape:connector-curvature="0" />
          <path
             id="path3751"
             d="m 425.992,379.479 c 0,-6.987 4.401,-12.94 10.598,-15.315 -1.85,-0.709 -3.854,-1.115 -5.956,-1.115 -9.143,0 -16.554,7.354 -16.554,16.431 0,9.071 7.411,16.429 16.554,16.429 2.103,0 4.106,-0.406 5.956,-1.115 -6.196,-2.376 -10.598,-8.328 -10.598,-15.315 z"
             style="fill:#ff9518"
             inkscape:connector-curvature="0" />
          <path
             id="path3753"
             d="m 430.634,402.211 c -12.603,0 -22.858,-10.197 -22.858,-22.731 0,-12.537 10.255,-22.732 22.858,-22.732 12.605,0 22.858,10.195 22.858,22.73 -0.003,12.536 -10.255,22.733 -22.858,22.733 z m 0,-32.858 c -5.652,0 -10.249,4.543 -10.249,10.126 0,5.58 4.597,10.124 10.249,10.124 5.652,0 10.249,-4.544 10.249,-10.126 0,-5.58 -4.597,-10.124 -10.249,-10.124 z"
             style="fill:#db722c"
             inkscape:connector-curvature="0" />
          <g
             id="g3759">
            <path
               id="path3755"
               d="m 140.441,226.608 10.829,10.829 c 0.899,0.899 1.565,1.945 2.003,3.06 l 4.692,-4.692 c -1.104,-0.48 -2.134,-1.172 -3.012,-2.051 l -10.829,-10.828 c -0.899,-0.9 -1.584,-1.926 -2.056,-3.008 l -4.69,4.69 c 1.136,0.445 2.178,1.116 3.063,2 z"
               style="fill:#445ea0"
               inkscape:connector-curvature="0" />
            <path
               id="path3757"
               d="m 252.734,130.761 -5.617,-5.617 c -0.625,-0.624 -1.785,-0.818 -2.578,-0.432 l -12.516,6.108 c -0.794,0.387 -1.76,1.353 -2.146,2.146 l -5.565,11.407 -62.956,62.956 c -2.776,-0.288 -5.633,0.589 -7.779,2.616 0.719,0.42 1.396,0.928 1.997,1.529 l 10.829,10.828 c 0.612,0.612 1.12,1.285 1.535,1.992 2.024,-2.146 2.899,-5 2.612,-7.773 l 62.953,-62.953 11.41,-5.566 c 0.794,-0.387 1.76,-1.353 2.146,-2.146 l 6.107,-12.517 c 0.387,-0.793 0.191,-1.953 -0.432,-2.578 z"
               style="fill:#445ea0"
               inkscape:connector-curvature="0" />
          </g>
          <path
             id="path3761"
             d="m 167.749,235.1 c -3.538,3.538 -9.614,3.251 -13.503,-0.639 l -10.829,-10.828 c -3.889,-3.89 -4.177,-9.966 -0.639,-13.504 3.538,-3.538 9.614,-3.251 13.503,0.639 l 10.829,10.828 c 3.889,3.889 4.177,9.965 0.639,13.504 z"
             style="fill:#293d7c"
             inkscape:connector-curvature="0" />
          <g
             id="g3777" />
          <path
             id="path3779"
             d="m 105.584,297.266 c -3.889,3.89 -10.253,3.89 -14.143,0 L 80.612,286.438 c -3.889,-3.89 -3.889,-10.253 0,-14.143 l 46.394,-46.393 c 3.889,-3.89 10.253,-3.89 14.142,0 l 10.829,10.829 c 3.889,3.889 3.889,10.253 0,14.143 z"
             style="fill:#293d7c"
             inkscape:connector-curvature="0" />
          <g
             id="g3785">
            <path
               id="path3781"
               d="m 97.455,286.438 c -3.889,-3.89 -3.889,-10.253 0,-14.143 l 45.043,-45.043 -1.35,-1.351 c -3.889,-3.89 -10.253,-3.89 -14.142,0 l -46.394,46.393 c -3.889,3.89 -3.889,10.253 0,14.143 l 10.829,10.828 c 3.889,3.89 10.253,3.89 14.143,0 l 1.35,-1.35 z"
               style="fill:#1a2b63"
               inkscape:connector-curvature="0" />
            <path
               id="path3783"
               d="m 149.278,216.629 c 3.538,-3.538 9.614,-3.251 13.503,0.639 l -6.5,-6.5 c -3.889,-3.89 -9.966,-4.177 -13.503,-0.639 -3.537,3.538 -3.25,9.614 0.639,13.504 l 6.497,6.496 c -3.886,-3.889 -4.172,-9.963 -0.636,-13.5 z"
               style="fill:#1a2b63"
               inkscape:connector-curvature="0" />
          </g>
          <g
             id="g3787" />
          <g
             id="g3789" />
          <g
             id="g3791" />
          <g
             id="g3793" />
          <g
             id="g3795" />
          <g
             id="g3797" />
          <g
             id="g3799" />
          <g
             id="g3801" />
          <g
             id="g3803" />
          <g
             id="g3805" />
          <g
             id="g3807" />
          <g
             id="g3809" />
          <g
             id="g3811" />
          <g
             id="g3813" />
          <g
             id="g3815" />
        </g>
        <text
           xml:space="preserve"
           style="font-style:normal;font-weight:normal;font-size:6.79812717px;line-height:1.25;font-family:sans-serif;letter-spacing:0px;word-spacing:0px;fill:#000000;fill-opacity:1;stroke:none;stroke-width:0.16995318"
           x="15.99836"
           y="172.29622"
           id="text138"
           transform="scale(0.88958039,1.1241255)"><tspan
             sodipodi:role="line"
             id="tspan136"
             x="15.99836"
             y="172.29622"
             style="font-style:normal;font-variant:normal;font-weight:bold;font-stretch:normal;font-size:14.50267124px;font-family:sans-serif;-inkscape-font-specification:'sans-serif Bold';fill:#000080;stroke-width:0.16995318">UTA</tspan></text>
      </g>
    </g>
  </g>
</svg>
